<svg width="2000" height="1048" fill="none" xmlns="http://www.w3.org/2000/svg">
  <ellipse opacity=".7" cx="987.3" cy="783.9" rx="239.5" ry="69.4" fill="#056CF0" />
  <path d="m1388.7 290.3 13.2 55.8a13 13 0 0 1-13 16l-76-2.6a13 13 0 0 0-3.4.4l-7.9 1.9a13 13 0 0 1-15.6-9.7l-3.6-15.1a13 13 0 0 1 9.6-15.6l8-2a13 13 0 0 0 3.1-1.1l66.7-36.4a13 13 0 0 1 18.9 8.4ZM1370.4 312.3l10.6 44.5" stroke="#232323" stroke-width="17.6" stroke-linecap="round" stroke-linejoin="round" />
  <path d="M1406.6 284a8.8 8.8 0 0 0 11.3 13.4l-11.3-13.5Zm21 5.2a8.8 8.8 0 1 0-11.2-13.5l11.3 13.5Zm-9.7 8.2 9.8-8.2-11.3-13.5-9.8 8.2 11.3 13.5ZM1424.8 326.6a8.8 8.8 0 1 0-4 17l4-17Zm8.4 20a8.8 8.8 0 0 0 4-17.1l-4 17Zm-12.4-3 12.4 3 4-17.1-12.4-3-4 17.2ZM1423.3 302.6a8.8 8.8 0 1 0 4.1 17.1l-4-17Zm9.7 15.8a8.8 8.8 0 0 0-4.1-17l4 17Zm-5.6 1.3 5.5-1.3-4-17-5.6 1.2 4.1 17.1Z" fill="#232323" />
  <path d="m1388.7 290.3 13.2 55.8a13 13 0 0 1-13 16l-76-2.6a13 13 0 0 0-3.4.4l-7.9 1.9a13 13 0 0 1-15.6-9.7l-3.6-15.1a13 13 0 0 1 9.6-15.6l8-2a13 13 0 0 0 3.1-1.1l66.7-36.4a13 13 0 0 1 18.9 8.4Z" fill="#fff" stroke="#232323" stroke-width="17.6" stroke-linecap="round" stroke-linejoin="round" />
  <path d="m1370.4 312.3 10.6 44.5" stroke="#232323" stroke-width="17.6" stroke-linecap="round" stroke-linejoin="round" />
  <mask id="a" maskUnits="userSpaceOnUse" x="712.5" y="282.1" width="613.3" height="569.1" fill="#000">
    <path fill="#fff" d="M712.5 282.1h613.3v569.1H712.5z" />
    <path d="M1048.7 494.8c14.4 3.2 48.3-60.4 89.7-135.8 41.4-75.5 149-69 151-14.6 1.5 38.6-50 74-94.2 67l-49.8 133.5c21.7 43.3 40 79.2 49.2 127.8 4.3 3 17.6 14.5 36.2 36.6 23.1 27.6-38.5 71-61 59.2-18.1-9.4-44.6-34.1-55.5-45.3-4.3-1-17.2-1.9-34.8 1.3-22 4-11.4 32-28.8 73.8s-81.5 19-82 6.3l-1.8-47.4c-.3-7-15.7 3.8-38.3-8-22.6-11.8-20-27.7-20.5-40.3-68.5-10.7-63.9 2.4-84 38-23.6 42-87-17.3-77.2-35 8.9-16.2 13.8-54.4 16-79.7a156 156 0 0 1 17-51.3c-31.4-34.2-51.1-57.7-36.1-118.8 5.4-22.4 15.9-17 23.7 1.6 10.4 25 57 39.6 72.7 39 41.1-40.1 157.7-50.3 208.5-8Z" />
  </mask>
  <path d="M1048.7 494.8c14.4 3.2 48.3-60.4 89.7-135.8 41.4-75.5 149-69 151-14.6 1.5 38.6-50 74-94.2 67l-49.8 133.5c21.7 43.3 40 79.2 49.2 127.8 4.3 3 17.6 14.5 36.2 36.6 23.1 27.6-38.5 71-61 59.2-18.1-9.4-44.6-34.1-55.5-45.3-4.3-1-17.2-1.9-34.8 1.3-22 4-11.4 32-28.8 73.8s-81.5 19-82 6.3l-1.8-47.4c-.3-7-15.7 3.8-38.3-8-22.6-11.8-20-27.7-20.5-40.3-68.5-10.7-63.9 2.4-84 38-23.6 42-87-17.3-77.2-35 8.9-16.2 13.8-54.4 16-79.7a156 156 0 0 1 17-51.3c-31.4-34.2-51.1-57.7-36.1-118.8 5.4-22.4 15.9-17 23.7 1.6 10.4 25 57 39.6 72.7 39 41.1-40.1 157.7-50.3 208.5-8Z" fill="#fff" />
  <path d="m1138.4 359-15.4-8.5 15.4 8.5Zm-89.8 135.8-3.8 17.1c-2.7-.6-5.3-1.8-7.4-3.6l11.3-13.5Zm-208.4 7.9 12.3 12.6c-3.1 3-7.3 4.8-11.6 5l-.7-17.6Zm-72.7-39-16.2 6.8 16.2-6.8Zm-23.7-1.6-17.1-4.2 17 4.2Zm36.1 118.8 13-11.9a17.6 17.6 0 0 1 2 21l-15-9.1Zm-17 51.3-17.5-1.6 17.5 1.6Zm-16 79.6 15.4 8.5-15.4-8.5Zm77.3 35 15.3 8.7-15.3-8.6Zm84-38 2.6-17.3a17.6 17.6 0 0 1 14.9 16.7l-17.6.7Zm20.4 40.4-8.1 15.6 8.1-15.6Zm122 49.1-16.1-6.7 16.2 6.7Zm29-73.8-3.2-17.3 3.1 17.3Zm34.7-1.3 3.6-17.2c3.4.7 6.5 2.4 8.9 4.9l-12.5 12.3Zm55.4 45.3-8 15.6 8-15.6Zm61-59.2 13.5-11.3-13.5 11.3Zm-36.1-36.6-10 14.4a17.6 17.6 0 0 1-7.3-11.1l17.3-3.3Zm-49.2-127.8-15.7 7.9a17.6 17.6 0 0 1-.7-14l16.4 6Zm49.8-133.6-16.5-6.1c3-7.9 11-12.6 19.3-11.2l-2.8 17.3Zm-41.4-43.9c-20.6 37.5-39.7 72.8-55.5 98.2a250.2 250.2 0 0 1-22.1 31.5 60 60 0 0 1-11.6 10.5c-3.9 2.6-11 6.3-19.8 4.3l7.7-34.3c-5.1-1.1-8 1.3-7.3.7.5-.3 2-1.5 4.5-4.3 4.9-5.6 11.1-14.6 18.8-26.9 15-24.4 33.6-58.6 54.5-96.6l30.8 17Zm-313 152.9c-11.6.4-30-4.2-46.2-11.5-15.7-7-35.4-19.3-43.3-38.3l32.4-13.6c2.5 6 11.3 13.5 25.3 19.9a88.6 88.6 0 0 0 30.5 8.3l1.4 35.2Zm-89.5-49.8c-1.6-3.8-3-6.1-4-7.2-.3-.6-.4-.5 0-.2s1.7 1.2 4 1.6c2.4.5 5 .3 7.5-.8 2.2-1 3.3-2.2 3.6-2.7.4-.4.2-.3-.2.6l-1.4 4.5-34.1-8.4c1.6-6.5 4-13.3 8.2-18.5 4.8-6 13-11.2 23.4-9a29.4 29.4 0 0 1 16.8 11.3c3.5 4.4 6.3 9.7 8.6 15.2l-32.4 13.6Zm43.6 119.6c-2 3.3-5.4 10.8-8.6 20-3.2 9-5.4 17.9-6 23.6l-35-3c1-10 4.3-22 7.8-32.2a151 151 0 0 1 11.8-26.8l30 18.4Zm-14.5 43.6c-1.1 13-3 29.4-5.7 44.8-2.6 14.8-6.4 31-12.4 41.8l-30.8-17c3-5.2 6-16.2 8.6-30.9 2.5-14 4.2-29.4 5.3-41.8l35 3Zm-18 86.6c1.7-3.2.8-5.5 1-4.6.3.8 1 2.6 2.8 5.2a63 63 0 0 0 16.6 16.3 34.5 34.5 0 0 0 17.8 6.8c2.7 0 5.4-.7 8.3-5.8l30.6 17.3a43.7 43.7 0 0 1-38.6 23.7c-14 0-27.4-6-37.7-12.9a98 98 0 0 1-26.3-25.8c-3.1-4.8-6-10.2-7.4-16a28.7 28.7 0 0 1 2-21.1l30.8 16.9Zm46.5 18 6.2-11.8c1.9-3.6 3.8-7.4 5.8-10.8 3.9-6.9 9-14.5 17.6-20a57 57 0 0 1 30-8c11-.3 25 1.1 42.3 3.8l-5.4 34.7a209.1 209.1 0 0 0-36-3.3c-7.6.2-10.6 1.6-11.9 2.4-1.4 1-3.1 2.6-6.1 7.8l-5 9.5c-2 3.8-4.2 8.1-7 12.9L809 738.2Zm116.8-30v5.2l.2 4.4c.1 2.7.4 4.6 1 6.1.6 2.1 2.2 5.6 9.9 9.6l-16.3 31.2a51.4 51.4 0 0 1-27.2-30.1c-3.2-10-2.6-21.4-2.7-25.2l35-1.3Zm60.6 95.7c-.2-5.4-3.3-7.8-2.5-7 .2.2 1.3 1 3.5 2.2 4.4 2.3 11 4.4 18 5.2 14.8 1.7 24.9-2.5 29.2-12.8l32.4 13.5c-13 31.5-43.8 36.7-65.5 34.3a89.6 89.6 0 0 1-30.2-9 50.4 50.4 0 0 1-11.7-8c-2.9-2.8-8-8.6-8.4-17.1l35.2-1.3Zm48.2-12.4c7.7-18.6 9-33.5 11.6-47.4a61.5 61.5 0 0 1 7.1-21.6c5.2-8.3 13-13.6 23.2-15.4l6.3 34.6c-.9.1-.8.3-.3 0l.7-.7c-.4.7-1.3 2.9-2.4 9.3-2 11.5-4.1 31.5-13.8 54.7l-32.4-13.5Zm41.9-84.4c19.3-3.5 34.5-2.7 41.5-1.2l-7.3 34.4h-.1a14.8 14.8 0 0 0-2.4-.3l-6-.2c-5 0-11.7.5-19.4 1.9l-6.3-34.6Zm50.4 3.7a399 399 0 0 0 24 22.2c10 8.7 20 16.1 27 19.8l-16.2 31.2a199 199 0 0 1-33.7-24.2 433 433 0 0 1-26.2-24.4l25.1-24.6Zm51 42c-.6-.3 1.7.9 8.7-1.5 6.3-2 13.5-6 19.6-11.2a38.5 38.5 0 0 0 11.6-14.5c1.1-3 .6-4-.4-5.1l27-22.6a39.1 39.1 0 0 1 6.4 40 72.7 72.7 0 0 1-22 29.1 97.8 97.8 0 0 1-31.1 17.7c-10.1 3.4-24 5.6-36-.7l16.3-31.2Zm39.5-32.3a227.3 227.3 0 0 0-32.7-33.5l20-28.9c6.2 4.3 20.6 17.2 39.6 39.8l-26.9 22.6ZM1129 538.7l49.7-133.5 33 12.3-49.8 133.5-33-12.3Zm69-144.7a72.8 72.8 0 0 0 51.3-13.4c15.5-10.8 23-24.4 22.5-35.5l35.2-1.3c1 27.4-16.5 50.9-37.4 65.6a107.8 107.8 0 0 1-77.2 19.3l5.6-34.7Zm73.8-48.9c-.2-7-3.6-12.7-10.5-17.2a57 57 0 0 0-32.1-7.4c-26.9.9-58 15.3-75.4 47l-30.8-17a125 125 0 0 1 105.1-65 91.7 91.7 0 0 1 52.2 12.8 55.7 55.7 0 0 1 26.7 45.5l-35.2 1.3Zm-335 388.5c7.4 4 13.4 4.1 18.4 3.8l4.3-.2a40 40 0 0 1 6 0 20 20 0 0 1 19 19.4l-35.2 1.3c.1 2.6 1.2 7.4 5.6 11 3.6 3 7.2 3.2 7.5 3.3h-.7l-4.7.4c-8.4.4-21.4 0-36.5-7.8l16.3-31.2Zm47.7 23 1.8 47.4-35.2 1.3-1.8-47.4 35.2-1.3Zm192.8-80.6c-8.7-45.9-25.8-79.7-47.6-123.2l31.5-15.8c21.5 43 41 81 50.6 132.4l-34.5 6.6Zm-140-167.7c-20.3-17-56.8-25-95.5-23-38.8 2.2-73.2 14.2-89.3 30L827.9 490c25-24.4 69.5-37.5 112-39.8 42.5-2.4 89.7 5.7 120 31l-22.5 27Zm-276.5-42c-6.9 28.2-5.3 45.4 0 58.9 5.6 14.2 16 26.4 32 43.8L767 592.8c-15.4-16.8-30.6-33.5-39-54.8-8.6-22.1-9.4-47.2-1.3-80.1l34.1 8.4Z" fill="#232323" mask="url(#a)" />
  <path d="M1081.5 734c25.3-1 62.4-18.9 62.4-18.9M889.5 715c31.7 2 46.4 6.4 73 10.8-1.8 13.3-4.7 26.8-4 40.7M1227.2 419c-17.3 7.6-56.7-6.2-57-17.3" stroke="#232323" stroke-width="17.6" stroke-linecap="round" stroke-linejoin="round" />
  <circle r="8.8" transform="scale(-1 1) rotate(2.2 -9137 -32572.2)" fill="#232323" />
  <path d="M1463.5 415.5c10.8 45.7-66 82.2-93.5 103.2 133.3 86.6 174 32.5 207.7-107.7-16.3 21.8-71.6 23.6-114.3 4.5Z" fill="#fff" stroke="#232323" stroke-width="17" stroke-linecap="round" stroke-linejoin="round" />
  <path d="M1420 546c19.2-3.7 56.7-16.4 52.5-37.7 39 5.9 68.8 18.2 78.6-11.6" stroke="#000" stroke-opacity=".5" stroke-width="17" stroke-linecap="round" stroke-linejoin="round" />
  <path d="M660 643.4c-65.9-18.7-101-80-110.3-108.4-14.3 7.1-54 24.4-98.6 36.3-2.6 17.2 64.7 78.6 98.6 107.1 18.8-1 67.3-9.6 110.3-35Z" fill="#fff" stroke="#232323" stroke-width="17" stroke-linecap="round" stroke-linejoin="round" />
</svg>