<svg width="490" height="287" viewBox="0 0 490 287" fill="none" xmlns="http://www.w3.org/2000/svg">
<path d="M377.519 172.243C377.519 232.486 313.944 286.5 251.001 286.5C188.059 286.5 117.238 255.826 117.238 195.584C117.238 135.341 162.058 86.917 225 86.917C287.943 86.917 377.519 112 377.519 172.243Z" fill="#FEFCE8"/>
<path d="M210.718 154.517C191.665 152.058 184.976 137.856 186.338 126.654C190.026 96.3326 235.96 103.069 246.981 124.4C253.332 136.693 249.234 167.833 249.439 172.545L249.443 172.631C249.645 177.302 249.806 181.03 276.482 194.877C297.953 206.022 303.184 236.397 303.116 249.578C314.825 263.796 334.823 261.314 334.257 240.358C338.354 245.48 342.656 259.412 332.003 270.065C321.35 280.718 307.62 275.187 301.269 270.065C299.903 272.592 296.232 277.399 285.087 281.333C273.942 285.267 254.971 281.538 250.873 280.513C249.234 279.284 252.103 274.777 252.103 274.777C252.103 274.777 246.776 276.416 243.498 276.416C243.361 278.738 240.609 283.894 230.591 284.406C219.483 284.974 216.203 277.666 211.538 276.416C193.439 277.753 193.43 273.931 192.481 270.065C195.734 241.058 187.479 213.615 205.801 189.55C208.26 183.609 210.227 164.514 210.718 154.517Z" fill="#86EFAC"/>
<path d="M163.184 142.794C165.437 147.71 177.629 148.859 185.105 146.423L225.875 164.452C225.875 164.452 226.285 169.776 232.759 172.442C242.265 176.355 249.435 172.442 249.435 172.442V167.935C249.435 167.935 242.265 170.882 232.759 166.969C226.285 164.303 226.899 158.978 226.899 158.978L185.105 141.916C177.629 144.351 168.101 140.13 162.979 136.852L163.184 142.794Z" fill="#959EB8"/>
<path d="M177.525 132.082C177.525 132.082 185.152 135.398 186.744 136.819V132.312C185.105 128.862 177.525 127.575 177.525 127.575V132.082Z" fill="#959EB8"/>
<path d="M258.45 168.14C257.425 166.501 251.894 163.018 247.796 161.993L239.192 164.452V159.945L247.796 157.486C251.894 158.51 258.245 161.232 259.269 162.871C260.725 162.241 260.089 158.978 261.523 157.749V163.076C261.339 165.198 259.778 167.565 258.45 168.14Z" fill="#959EB8"/>
<path d="M163.188 138.127C165.441 143.044 178.042 144.455 185.519 142.019L226.288 160.048C226.288 160.048 226.698 165.373 233.173 168.038C242.678 171.952 249.849 168.038 249.849 168.038C247.989 166.229 241.859 162.916 239.605 160.048L248.21 157.59C252.307 158.614 257.839 162.097 258.863 163.736C261.39 162.643 263.549 156.717 258.863 153.697C249.644 147.756 245.751 150.419 236.327 150.419L197.257 132.416C197.257 125.671 183.084 122.949 177.525 127.633C177.525 127.633 185.565 130.994 187.158 132.416L177.938 135.054C177.938 135.054 170.691 131.333 168.309 130.342C166.009 131.278 162.049 135.643 163.188 138.127Z" fill="#E0E6E7"/>
<path d="M210.718 154.517C191.665 152.058 184.976 137.856 186.338 126.654C190.026 96.3326 235.96 103.069 246.981 124.4C249.234 135.327 245.137 156.647 210.718 154.517Z" fill="#86EFAC"/>
<circle cx="204.367" cy="112.928" r="2.45847" fill="black"/>
<circle cx="218.298" cy="117.025" r="2.45847" fill="black"/>
<path d="M277.917 240.358C264.805 241.793 253.533 252.196 253.328 274.322C251.893 275.126 248.698 278.46 250.665 280.263" stroke="#6C6E78" stroke-width="1.2" stroke-linecap="round"/>
<path d="M254.151 238.105L249.849 241.383C248.756 252.241 245.915 274.777 243.293 278.055" stroke="#6C6E78" stroke-width="1.2" stroke-linecap="round"/>
<path d="M202.523 243.021C204.64 245.207 209.899 249.414 213.996 248.758C212.357 259.411 211.128 276.826 213.996 278.055" stroke="#6C6E78" stroke-width="1.2" stroke-linecap="round"/>
<path d="M185.928 127.883C185.928 128.908 183.47 143.863 202.728 151.853C218.656 158.462 232.434 151.444 234.893 150.214" stroke="#262626" stroke-width="1.2" stroke-linecap="round"/>
<path d="M163.184 141.974C164.004 146.686 174.903 150.087 184.901 146.481C188.67 148.12 213.651 159.183 225.67 164.51C227.104 172.5 241.855 176.106 249.231 172.5" stroke="black" stroke-width="1.63898" stroke-linecap="round"/>
<path d="M245.133 162.871L248.206 161.847C250.869 163.144 255.254 165.575 257.221 167.378" stroke="black" stroke-width="1.63898" stroke-linecap="round"/>
<path d="M177.32 132.14L180.393 133.779" stroke="black" stroke-width="1.63898" stroke-linecap="round"/>
<path d="M249.435 150.169C243.699 149.349 238.577 150.579 229.563 157.135C241.24 155.291 253.943 155.496 260.703 155.905C259.269 152.832 255.172 150.988 249.435 150.169Z" fill="white"/>
<path d="M164.413 133.779C164.741 132.796 167.145 131.048 168.306 130.296L175.272 133.779C172.677 133.711 166.872 133.615 164.413 133.779Z" fill="white"/>
<path d="M4.59524 181.034L5.74263 180.227L8.64266 181.373L9.43914 183.996L6.95313 185.744L4.69054 184.15L4.59524 181.034Z" fill="#C4C4C4"/>
<rect x="6.95312" y="185.743" width="2.96074" height="25.9316" transform="rotate(-35.102 6.95312 185.743)" fill="#C4C4C4"/>
<rect x="19.8247" y="208.393" width="8.10307" height="3.05744" transform="rotate(-35.102 19.8247 208.393)" fill="#C4C4C4"/>
<rect x="18.8755" y="209.751" width="11.0638" height="24.4595" rx="4.73182" transform="rotate(-35.102 18.8755 209.751)" fill="#A2E483"/>
<path d="M84.5763 59.6459C86.7234 60.9345 87.8486 64.7773 87.6174 65.8387C92.3611 67.7751 102.129 71.7853 103.249 72.3349C106.919 74.1361 105.603 78.72 102.213 80.3443L84.3669 73.6418C83.8639 74.8635 79.6394 76.6674 77.4932 75.849C73.931 74.4908 80.8771 57.4256 84.5763 59.6459Z" fill="#D2D2D2"/>
<path d="M85.6828 73.1614C88.194 72.6037 90.6919 70.2495 91.5769 68.4462" stroke="#B1ACAC" stroke-width="2.1199" stroke-linecap="round"/>
<path d="M90.5485 75.1015C93.0597 74.5439 95.02 72.3733 95.9049 70.57" stroke="#B1ACAC" stroke-width="2.1199" stroke-linecap="round"/>
<path d="M95.4139 77.0416C97.9252 76.484 99.3478 74.4971 100.233 72.6938" stroke="#B1ACAC" stroke-width="2.1199" stroke-linecap="round"/>
<path d="M78.1491 74.8342C82.8577 72.8754 85.7209 64.528 84.1536 60.7754" stroke="#B1ACAC" stroke-width="2.1199" stroke-linecap="round"/>
<path fill-rule="evenodd" clip-rule="evenodd" d="M237.969 15.2532L238.37 12.4281L241.023 12.6344L242.839 9.90102L241.821 7.43327L243.987 6.05156L245.557 8.07461L248.762 7.43327L249.444 4.84082L252.172 5.2444L251.915 8.07461L254.633 9.90102L257.086 8.71519L258.432 11.056L256.449 12.6344L257.086 15.8587L259.555 16.5446L259.154 19.289L256.42 19.002L254.604 21.7354L255.703 24.2031L253.617 25.4234L251.887 23.5618L248.681 24.2031L248.24 26.7149L245.557 26.1499L245.609 23.5618L242.891 21.7354L240.777 23.0826L239.172 20.7419L241.075 19.002L240.438 15.7777L237.969 15.2532ZM248.906 18.0803C250.177 18.0803 251.208 17.0494 251.208 15.7777C251.208 14.5061 250.177 13.4752 248.906 13.4752C247.634 13.4752 246.603 14.5061 246.603 15.7777C246.603 17.0494 247.634 18.0803 248.906 18.0803Z" fill="#C4C4C4"/>
<path fill-rule="evenodd" clip-rule="evenodd" d="M231.953 13.686L230.293 12.9785L230.853 11.3916L229.481 9.83516L227.806 10.0533L227.317 8.50378L228.81 7.87634L228.943 5.81339L227.471 4.97255L228.164 3.37207L229.85 3.99224L231.411 2.63127L231.088 0.938611L232.738 0.5L233.378 1.96953L235.451 2.10778L236.274 0.712102L237.885 1.40634L237.262 3.02903L238.635 4.58551L240.322 4.31831L240.726 5.79244L239.306 6.54433L239.173 8.60728L240.635 9.28787L239.85 10.8347L238.278 10.3792L236.718 11.7402L237.195 13.2519L235.502 13.8491L234.751 12.4019L232.677 12.2637L231.953 13.686ZM234.227 8.29484C234.863 8.29484 235.378 7.7794 235.378 7.14357C235.378 6.50775 234.863 5.99231 234.227 5.99231C233.591 5.99231 233.076 6.50775 233.076 7.14357C233.076 7.7794 233.591 8.29484 234.227 8.29484Z" fill="#C4C4C4"/>
<path fill-rule="evenodd" clip-rule="evenodd" d="M484.57 200.835C482.224 203.181 478.808 203.8 475.909 202.688L459.387 220.949C457.656 222.862 454.677 222.937 452.852 221.112C451.028 219.288 451.103 216.309 453.016 214.578L471.277 198.055C470.165 195.157 470.784 191.741 473.129 189.395C475.643 186.882 479.071 186.036 482.089 187.494L477.539 193.383L478.269 195.906L480.635 196.479L485.841 191.246C487.299 194.264 487.083 198.322 484.57 200.835ZM454.693 219.272C455.311 219.889 456.312 219.889 456.929 219.272C457.546 218.654 457.546 217.654 456.929 217.036C456.312 216.419 455.311 216.419 454.693 217.036C454.076 217.654 454.076 218.654 454.693 219.272Z" fill="#C4C4C4"/>
<rect x="386.777" y="58.0098" width="20.0797" height="31.9268" transform="rotate(-16.9968 386.777 58.0098)" fill="#C4C4C4"/>
<rect x="387.482" y="60.314" width="20.0797" height="26.9068" transform="rotate(-16.9968 387.482 60.314)" fill="#FBF681"/>
<path d="M389.865 48.877L400.042 45.766L400.659 47.7823L399.488 50.1348L400.662 53.9754L392.213 56.558L389.865 48.877Z" fill="#7C7C7C"/>
<circle cx="49.5104" cy="126.525" r="7.3729" fill="#E8FFDD"/>
<circle cx="163.019" cy="33.5925" r="7.02998" fill="#DDF9FF"/>
<circle cx="327.28" cy="34.6208" r="6.0012" fill="#FFDDFC"/>
<circle cx="441.303" cy="139.728" r="5.82974" fill="#FFDDDD"/>
</svg>
